<svg width="195" height="166" viewBox="0 0 195 166" fill="none" xmlns="http://www.w3.org/2000/svg">
<rect width="195" height="166" rx="19" fill="#56C0A7"/>
<path d="M124.375 59H71.625C68.5273 59 66 61.5245 66 64.625V102.125C66 105.215 68.516 107.75 71.625 107.75H124.375C127.465 107.75 130 105.234 130 102.125V64.625C130 61.535 127.484 59 124.375 59ZM123.598 62.75L98.1193 88.2291L72.4199 62.75H123.598ZM69.75 101.348V65.3836L87.8099 83.2886L69.75 101.348ZM72.4016 104L90.4729 85.9287L96.805 92.2065C97.538 92.9333 98.7209 92.9309 99.4509 92.2007L105.625 86.0266L123.598 104H72.4016ZM126.25 101.348L108.277 83.375L126.25 65.4015V101.348Z" fill="white"/>
</svg>
