<svg width="195" height="166" viewBox="0 0 195 166" fill="none" xmlns="http://www.w3.org/2000/svg">
<rect width="195" height="166" rx="19" fill="#56C0A7"/>
<path d="M116.844 117.333H78.4062C74.8757 117.333 72 114.46 72 110.927V81.0312C72 77.4978 74.8757 74.625 78.4062 74.625H116.844C120.374 74.625 123.25 77.4978 123.25 81.0312V110.927C123.25 114.46 120.374 117.333 116.844 117.333ZM78.4062 78.8958C77.2303 78.8958 76.2708 79.8525 76.2708 81.0312V110.927C76.2708 112.106 77.2303 113.062 78.4062 113.062H116.844C118.02 113.062 118.979 112.106 118.979 110.927V81.0312C118.979 79.8525 118.02 78.8958 116.844 78.8958H78.4062Z" fill="white"/>
<path d="M112.573 78.8958C111.394 78.8958 110.438 77.9392 110.438 76.7604V66.0833C110.438 59.0194 104.689 53.2708 97.6252 53.2708C90.5612 53.2708 84.8127 59.0194 84.8127 66.0833V76.7604C84.8127 77.9392 83.856 78.8958 82.6773 78.8958C81.4985 78.8958 80.5419 77.9392 80.5419 76.7604V66.0833C80.5419 56.6619 88.2037 49 97.6252 49C107.047 49 114.709 56.6619 114.709 66.0833V76.7604C114.709 77.9392 113.752 78.8958 112.573 78.8958Z" fill="white"/>
<path d="M97.6251 97.4028C94.4846 97.4028 91.9307 94.8488 91.9307 91.7084C91.9307 88.5679 94.4846 86.0139 97.6251 86.0139C100.766 86.0139 103.32 88.5679 103.32 91.7084C103.32 94.8488 100.766 97.4028 97.6251 97.4028ZM97.6251 90.2847C96.8421 90.2847 96.2015 90.9225 96.2015 91.7084C96.2015 92.4942 96.8421 93.132 97.6251 93.132C98.4081 93.132 99.0487 92.4942 99.0487 91.7084C99.0487 90.9225 98.4081 90.2847 97.6251 90.2847Z" fill="white"/>
<path d="M97.6248 105.944C96.446 105.944 95.4894 104.988 95.4894 103.809V95.9792C95.4894 94.8004 96.446 93.8438 97.6248 93.8438C98.8035 93.8438 99.7602 94.8004 99.7602 95.9792V103.809C99.7602 104.988 98.8035 105.944 97.6248 105.944Z" fill="white"/>
</svg>
