<svg width="28" height="27" viewBox="0 0 28 27" fill="none" xmlns="http://www.w3.org/2000/svg">
<ellipse cx="13.8853" cy="13.5" rx="13.3593" ry="13.5" fill="white"/>
<path d="M13.8853 9.81152C15.0743 9.81152 15.2153 9.81602 15.6851 9.83777C16.8926 9.89327 17.4552 10.4715 17.5108 11.682C17.5316 12.1568 17.5361 12.2985 17.5361 13.5C17.5361 14.7015 17.5316 14.844 17.5108 15.318C17.4552 16.5278 16.8934 17.1075 15.6851 17.163C15.2153 17.184 15.075 17.1893 13.8853 17.1893C12.6963 17.1893 12.5553 17.1848 12.0862 17.163C10.8765 17.1068 10.3161 16.5263 10.2605 15.318C10.2397 14.844 10.2345 14.7015 10.2345 13.5C10.2345 12.2985 10.2397 12.156 10.2605 11.682C10.3154 10.4708 10.878 9.89252 12.0862 9.83702C12.5553 9.81527 12.6963 9.81152 13.8853 9.81152Z" fill="#3915A4"/>
<path d="M13.526 5C11.3527 5 11.082 5.00933 10.2273 5.04933C7.32067 5.18267 5.70733 6.79467 5.574 9.70133C5.53533 10.556 5.526 10.828 5.526 13C5.526 15.1733 5.53533 15.4453 5.574 16.2987C5.70733 19.204 7.32067 20.8187 10.2273 20.952C11.082 20.9907 11.3527 21 13.526 21C15.6993 21 15.9713 20.9907 16.826 20.952C19.7273 20.8187 21.3473 19.2067 21.478 16.2987C21.5167 15.4453 21.526 15.1733 21.526 13C21.526 10.828 21.5167 10.556 21.478 9.70133C21.3473 6.79867 19.7327 5.18133 16.826 5.04933C15.9713 5.00933 15.6993 5 13.526 5V5Z" fill="#1D1F46"/>
<path d="M13.526 8.89209C11.258 8.89209 9.41803 10.7308 9.41803 13.0001C9.41803 15.2694 11.258 17.1081 13.526 17.1081C15.794 17.1081 17.634 15.2694 17.634 13.0001C17.634 10.7321 15.794 8.89209 13.526 8.89209Z" fill="white"/>
<path d="M13.526 15.6666C12.0526 15.6666 10.8593 14.4733 10.8593 12.9999C10.8593 11.5279 12.0526 10.3333 13.526 10.3333C14.998 10.3333 16.194 11.5266 16.194 12.9999C16.194 14.4733 14.998 15.6666 13.526 15.6666Z" fill="#1D1F46"/>
<path d="M17.7953 7.77075C17.266 7.77075 16.8353 8.20009 16.8353 8.73075C16.8353 9.26009 17.2647 9.69075 17.7953 9.69075C18.326 9.69075 18.7567 9.26142 18.7567 8.73075C18.7567 8.20009 18.3273 7.77075 17.7953 7.77075Z" fill="white"/>
</svg>
