<svg width="98" height="98" viewBox="0 0 98 98" fill="none" xmlns="http://www.w3.org/2000/svg">
<g filter="url(#filter0_d)">
<circle cx="49" cy="47" r="39" fill="#60BCE7"/>
<path d="M40.023 40.759L40.2471 40.9762L43.3536 37.9568L43.1301 37.7391C43.9965 35.7109 43.5831 33.2873 41.8855 31.6366C40.1874 29.987 37.6934 29.5852 35.6052 30.4277L39.3676 34.0839L36.2611 37.1027L32.4993 33.446C31.6323 35.4758 32.0462 37.8994 33.7444 39.5485C35.4419 41.1987 37.9359 41.6009 40.023 40.759Z" fill="white"/>
<path d="M60.6493 38.0364L63.4742 37.1302L66.1147 32.7121L64.2094 30.8611L59.6635 33.4276L58.7315 36.1727L56.3758 38.4614L58.2937 40.3251L60.6493 38.0364Z" fill="white"/>
<path d="M66.5596 60.4772C67.4266 58.4479 67.0142 56.0243 65.3167 54.3742C63.618 52.7245 61.1235 52.3223 59.0364 53.1647L58.6962 52.8347L55.5892 55.8535L55.9293 56.1841C55.0624 58.2118 55.4758 60.6364 57.1744 62.286C58.872 63.9357 61.3665 64.338 63.4536 63.4955L59.6918 59.8393L62.7988 56.821L66.5596 60.4772Z" fill="white"/>
<path fill-rule="evenodd" clip-rule="evenodd" d="M57.5867 49.1316C57.4066 49.7574 57.1505 50.3526 56.8294 50.9073L58.3794 52.414L55.1573 55.5457L53.6073 54.0389C53.036 54.35 52.4241 54.5993 51.7795 54.7754V56.9048H47.2223V54.7754C46.5783 54.5993 45.9664 54.3505 45.3946 54.0389L43.8446 55.5457L40.622 52.414L42.1719 50.9073C41.8513 50.3526 41.5952 49.7579 41.414 49.1316H39.2228V44.703H41.414C41.5952 44.0778 41.8513 43.4825 42.1719 42.9274L40.622 41.4211L43.8446 38.289L45.3946 39.7957C45.9664 39.4847 46.5783 39.2353 47.2223 39.0592V36.9298H51.7795V39.0592C52.4235 39.2353 53.036 39.4842 53.6073 39.7957L55.1573 38.289L58.3794 41.4211L56.8294 42.9274C57.15 43.4825 57.4066 44.0772 57.5867 44.703H59.7791V49.1316H57.5867ZM44.6828 46.9179C44.6828 49.5022 46.8398 51.599 49.5004 51.599C52.1615 51.599 54.318 49.5022 54.318 46.9179C54.318 44.3324 52.1615 42.2362 49.5004 42.2362C46.8404 42.2362 44.6828 44.3324 44.6828 46.9179Z" fill="white"/>
<path d="M36.0057 63.9208L32 60.0275L39.8707 52.3801L43.8764 56.2733L36.0057 63.9208Z" fill="white"/>
</g>
<defs>
<filter id="filter0_d" x="0" y="0" width="98" height="98" filterUnits="userSpaceOnUse" color-interpolation-filters="sRGB">
<feFlood flood-opacity="0" result="BackgroundImageFix"/>
<feColorMatrix in="SourceAlpha" type="matrix" values="0 0 0 0 0 0 0 0 0 0 0 0 0 0 0 0 0 0 127 0" result="hardAlpha"/>
<feOffset dy="2"/>
<feGaussianBlur stdDeviation="5"/>
<feColorMatrix type="matrix" values="0 0 0 0 0.376471 0 0 0 0 0.737255 0 0 0 0 0.905882 0 0 0 1 0"/>
<feBlend mode="normal" in2="BackgroundImageFix" result="effect1_dropShadow"/>
<feBlend mode="normal" in="SourceGraphic" in2="effect1_dropShadow" result="shape"/>
</filter>
</defs>
</svg>
