<svg width="98" height="98" viewBox="0 0 98 98" fill="none" xmlns="http://www.w3.org/2000/svg">
<g filter="url(#filter0_d)">
<circle cx="49" cy="47" r="39" fill="#FF9655"/>
<path fill-rule="evenodd" clip-rule="evenodd" d="M59 32H57V31C57 30.4477 56.5523 30 56 30C55.4477 30 55 30.4477 55 31V32H43V31C43 30.4477 42.5523 30 42 30C41.4477 30 41 30.4477 41 31V32H39C35.6863 32 33 34.6863 33 38V58C33 61.3137 35.6863 64 39 64H59C62.3137 64 65 61.3137 65 58V38C65 34.6863 62.3137 32 59 32ZM49 58C43.4772 58 39 53.5228 39 48C39 42.4772 43.4772 38 49 38C54.5228 38 59 42.4772 59 48C59 53.5228 54.5228 58 49 58ZM52.9999 48.9999C53.5522 48.9999 53.9999 48.5522 53.9999 47.9999C53.9999 47.4476 53.5522 46.9999 53 46.9999V46.9998H49.9999V43.0006L50 43C50 42.4477 49.5523 42 49.0001 41.9999C48.4478 41.9999 48 42.4476 48 42.9999H47.9999V48H48C48 48.5523 48.4477 49 49 49L49.0013 48.9998H52.9993L52.9999 48.9999Z" fill="white"/>
</g>
<defs>
<filter id="filter0_d" x="0" y="0" width="98" height="98" filterUnits="userSpaceOnUse" color-interpolation-filters="sRGB">
<feFlood flood-opacity="0" result="BackgroundImageFix"/>
<feColorMatrix in="SourceAlpha" type="matrix" values="0 0 0 0 0 0 0 0 0 0 0 0 0 0 0 0 0 0 127 0" result="hardAlpha"/>
<feOffset dy="2"/>
<feGaussianBlur stdDeviation="5"/>
<feColorMatrix type="matrix" values="0 0 0 0 1 0 0 0 0 0.588235 0 0 0 0 0.333333 0 0 0 1 0"/>
<feBlend mode="normal" in2="BackgroundImageFix" result="effect1_dropShadow"/>
<feBlend mode="normal" in="SourceGraphic" in2="effect1_dropShadow" result="shape"/>
</filter>
</defs>
</svg>
