<svg width="98" height="98" viewBox="0 0 98 98" fill="none" xmlns="http://www.w3.org/2000/svg">
<g filter="url(#filter0_d)">
<circle cx="49" cy="47" r="39" fill="#B888F8"/>
<path fill-rule="evenodd" clip-rule="evenodd" d="M39.3732 39.6255C39.3732 34.3157 43.6908 30 49.0015 30C54.3122 30 58.6309 34.3157 58.6309 39.6255C58.6309 43.2238 56.285 47.2305 53.9916 50.4042C51.6982 53.5778 49.4032 55.9048 49.4032 55.9048C49.1813 56.1297 48.8183 56.1297 48.5964 55.9048C48.5964 55.9048 46.3048 53.5778 44.0114 50.4042C41.718 47.2305 39.3732 43.2238 39.3732 39.6255ZM55.2344 39.6376C55.2344 36.2018 52.4371 33.4055 49.0015 33.4055C45.5658 33.4055 42.7697 36.2018 42.7697 39.6376C42.7697 43.0734 45.5658 45.8709 49.0015 45.8709C52.4371 45.8709 55.2344 43.0735 55.2344 39.6376ZM49.0015 34.5388C46.1783 34.5388 43.9029 36.8143 43.9029 39.6376C43.9029 42.461 46.1783 44.7376 49.0015 44.7376C51.8247 44.7376 54.1 42.461 54.1 39.6376C54.1 36.8143 51.8247 34.5388 49.0015 34.5388ZM49.3158 36.3328C49.2205 36.2692 49.1083 36.2361 48.9938 36.2377C48.8849 36.2394 48.7789 36.2724 48.6883 36.3328L45.2874 38.6005C44.5859 39.0027 45.2742 40.0345 45.9149 39.5412L46.1706 39.3708V41.9052C46.1718 42.2165 46.4238 42.4684 46.735 42.4697H51.2691C51.5803 42.4684 51.8323 42.2165 51.8336 41.9052V39.3708L52.0892 39.5412C52.7314 40.0426 53.4258 38.9998 52.7156 38.6005L49.3158 36.3328ZM49.0015 37.4839L47.3038 38.615V41.3365H50.7003V38.6161L49.0015 37.4839ZM41.5202 48.754C42.0334 49.5607 42.5658 50.339 43.0928 51.0682C45.4421 54.3192 47.7891 56.7005 47.7891 56.7005C48.4455 57.3652 49.5541 57.3652 50.21 56.7005C50.21 56.7005 52.5606 54.3196 54.9101 51.0682C55.4587 50.3092 56.0145 49.4991 56.5469 48.6566L58.2634 49.2996C58.3925 49.3479 58.4994 49.4416 58.5644 49.563L65.9295 63.1618C66.1824 63.6293 65.7104 64.1564 65.2179 63.9564L56.9376 60.6439L49.2217 63.9531C49.0799 64.0134 48.9197 64.0134 48.7779 63.9531L41.0609 60.6439L32.7795 63.9564C32.2815 64.1557 31.8111 63.6156 32.0767 63.1496L39.9276 49.5464C39.99 49.4395 40.0856 49.3559 40.1999 49.3085L41.5202 48.754Z" fill="white"/>
</g>
<defs>
<filter id="filter0_d" x="0" y="0" width="98" height="98" filterUnits="userSpaceOnUse" color-interpolation-filters="sRGB">
<feFlood flood-opacity="0" result="BackgroundImageFix"/>
<feColorMatrix in="SourceAlpha" type="matrix" values="0 0 0 0 0 0 0 0 0 0 0 0 0 0 0 0 0 0 127 0" result="hardAlpha"/>
<feOffset dy="2"/>
<feGaussianBlur stdDeviation="5"/>
<feColorMatrix type="matrix" values="0 0 0 0 0.721569 0 0 0 0 0.533333 0 0 0 0 0.972549 0 0 0 1 0"/>
<feBlend mode="normal" in2="BackgroundImageFix" result="effect1_dropShadow"/>
<feBlend mode="normal" in="SourceGraphic" in2="effect1_dropShadow" result="shape"/>
</filter>
</defs>
</svg>
