<svg width="82" height="74" viewBox="0 0 82 74" fill="none" xmlns="http://www.w3.org/2000/svg">
<path d="M6.49612 16.8443C4.59669 17.3516 3.01611 18.2835 2.13703 19.7875C1.258 21.2916 1.2185 23.1414 1.72031 25.0202L9.89179 55.6144C10.3929 57.4904 11.3373 59.0548 12.8554 59.9173C14.3735 60.7797 16.2444 60.8181 18.1588 60.3067L74.7281 45.1975C76.6022 44.6969 78.1838 43.7234 79.0484 42.2107C79.913 40.6977 79.9422 38.8654 79.4332 36.9595L71.2617 6.36534C70.7678 4.51616 69.8274 2.96313 68.3368 2.10601C66.8462 1.24913 65.0258 1.21144 63.1665 1.70805L6.49612 16.8443ZM4.84661 23.6461L28.4777 34.1541L13.4785 55.7615C10.4116 44.5992 7.5402 33.8322 4.84661 23.6461ZM67.8868 6.80858C70.8459 17.7863 73.8564 29.0578 76.3923 38.9577L52.6422 27.6999L67.8868 6.80858ZM31.6069 35.5285C34.1609 36.654 36.7768 37.8586 39.3155 38.9414C41.5854 39.4034 43.8975 38.7858 45.6347 37.2536C47.3104 35.0417 48.9651 32.7157 50.615 30.4516L74.5184 41.7764C55.243 46.9678 33.9901 52.6015 16.5269 57.2387L31.6069 35.5285Z" fill="white"/>
<ellipse cx="16.5" cy="69.9998" rx="16.5" ry="4" fill="#4E4A4A" fill-opacity="0.24"/>
</svg>
