<svg width="37" height="37" viewBox="0 0 37 37" fill="none" xmlns="http://www.w3.org/2000/svg">
<path d="M2.28395 18.5C2.28395 9.55849 9.55849 2.28395 18.5 2.28395C27.4417 2.28395 34.716 9.55849 34.716 18.5C34.716 27.4417 27.4417 34.716 18.5 34.716V37C28.7009 37 37 28.7009 37 18.5C37 8.29912 28.7009 0 18.5 0C8.29912 0 0 8.29912 0 18.5H2.28395Z" fill="#0A94D5"/>
<path d="M28.3878 13.316L19.0099 22.6938L17.7844 23.9195L16.5586 22.6938L11.8881 18.0231L14.0352 15.8763L17.9366 19.7779L26.7458 10.9687C24.2586 8.53086 21.485 7.30864 18.4239 7.30864C12.201 7.30864 7.15638 12.3533 7.15638 18.5761C7.15638 24.799 12.201 29.8436 18.4239 29.8436C24.6467 29.8436 29.6914 24.799 29.6914 18.5761C29.6914 16.6757 29.2187 14.8865 28.3878 13.316Z" fill="#0A94D5"/>
</svg>
