<svg width="33" height="32" viewBox="0 0 33 32" fill="none" xmlns="http://www.w3.org/2000/svg">
<path d="M29.5455 0.0374136C29.5412 0.0156734 29.5222 0 29.5 0C29.4778 0 29.4588 0.0156734 29.4545 0.0374136C28.9912 2.54373 28.5436 2.99134 26.0374 3.45471C26.0157 3.459 26 3.47806 26 3.50022C26 3.52238 26.0157 3.54144 26.0374 3.54572C28.5436 4.00909 28.9912 4.45671 29.4545 6.96259C29.4588 6.98433 29.4778 7 29.5 7C29.5222 7 29.5412 6.98433 29.5455 6.96259C30.0088 4.45671 30.4564 4.00909 32.9626 3.54572C32.9843 3.54144 33 3.52238 33 3.50022C33 3.47806 32.9843 3.459 32.9626 3.45471C30.4582 2.99134 30.0106 2.54373 29.5455 0.0374136Z" fill="#0A94D5"/>
<rect x="14.9167" y="17.3438" width="5.16667" height="5.0625" fill="#0A94D5"/>
<path fill-rule="evenodd" clip-rule="evenodd" d="M10.6111 3H24.3889C25.34 3 26.1111 3.75552 26.1111 4.6875V9.75H32.4713C32.4413 9.80322 32.4139 9.85761 32.3865 9.91208C32.3479 9.98885 32.3092 10.0658 32.2629 10.1398C29.8498 13.6784 26.0775 16.1091 21.8056 16.878V16.5C21.8056 16.034 21.42 15.6562 20.9444 15.6562H14.0556C13.58 15.6562 13.1944 16.034 13.1944 16.5V16.878C8.92173 16.1088 5.14881 13.6775 2.73539 10.1381C2.68929 10.0645 2.65136 9.98856 2.61345 9.91268C2.5862 9.85814 2.55897 9.80363 2.52872 9.75H8.88889V4.6875C8.88889 3.75552 9.65995 3 10.6111 3ZM12.3333 9.75H22.6667V6.375H12.3333V9.75Z" fill="#0A94D5"/>
<path d="M21.8056 18.5993V23.25C21.8056 23.716 21.42 24.0938 20.9444 24.0938H14.0556C13.58 24.0938 13.1944 23.716 13.1944 23.25V18.5993C8.77086 17.834 4.78764 15.5048 2 12.0534V30H33V12.0518C30.2133 15.5045 26.2297 17.8344 21.8056 18.5993Z" fill="#0A94D5"/>
<path d="M3.4545 31.9626C3.45878 31.9843 3.47784 32 3.5 32C3.52216 32 3.54122 31.9843 3.5455 31.9626C4.00884 29.4567 4.45643 29.0091 6.96259 28.5457C6.98433 28.5414 7 28.5224 7 28.5002C7 28.4781 6.98433 28.459 6.96259 28.4547C4.45643 27.9913 4.00884 27.5437 3.5455 25.0374C3.54122 25.0157 3.52216 25 3.5 25C3.47784 25 3.45878 25.0157 3.4545 25.0374C2.99116 27.5437 2.54357 27.9913 0.0374112 28.4547C0.0156725 28.459 0 28.4781 0 28.5002C0 28.5224 0.0156725 28.5414 0.0374112 28.5457C2.54182 29.0091 2.98941 29.4567 3.4545 31.9626Z" fill="#0A94D5"/>
</svg>
