<svg width="30" height="30" viewBox="0 0 30 30" fill="none" xmlns="http://www.w3.org/2000/svg">
<path fill-rule="evenodd" clip-rule="evenodd" d="M29.203 26.2251H26.3702V29.2074C26.3702 29.645 26.0132 30 25.5733 30H0.796983C0.35699 30 0 29.645 0 29.2074V4.56712C0 4.12991 0.35699 3.77452 0.796983 3.77452H3.62976V0.792598C3.62976 0.355025 3.98675 0 4.42675 0H29.203C29.643 0 30 0.355025 30 0.792598V25.4329C30 25.8701 29.643 26.2251 29.203 26.2251ZM28.406 24.6403H26.3702V4.56711C26.3702 4.12991 26.0132 3.77452 25.5733 3.77452H5.22373V1.5852H28.406V24.6403ZM24.7763 5.35971V16.4385L19.9749 12.7239L12.232 21.6876L7.7649 17.8371L1.59397 25.2444V5.35971H24.7763ZM10.489 8.31972C10.489 8.37706 10.4864 8.43368 10.4816 8.48993H11.2602C11.9379 8.48993 12.4921 9.04146 12.4921 9.71535V9.71608C12.4921 10.3903 11.9379 10.9415 11.2602 10.9415H5.71147C5.03348 10.9415 4.47927 10.3903 4.47927 9.71608V9.71535C4.47927 9.04146 5.03348 8.48993 5.71147 8.48993H6.49046C6.48568 8.43368 6.48274 8.37706 6.48274 8.31972C6.48274 7.21958 7.37963 6.32763 8.48585 6.32763C9.59208 6.32763 10.489 7.21958 10.489 8.31972Z" fill="#0A94D5"/>
</svg>
