<svg width="28" height="27" viewBox="0 0 28 27" fill="none" xmlns="http://www.w3.org/2000/svg">
<ellipse cx="13.7167" cy="13.5" rx="13.3593" ry="13.5" fill="white"/>
<path d="M21.9724 8.61563C21.362 8.8898 20.7045 9.07444 20.0151 9.15837C20.7197 8.73173 21.2581 8.0575 21.5142 7.25319C20.8553 7.64765 20.1258 7.93441 19.3493 8.08828C18.7292 7.41825 17.8419 7 16.8632 7C14.6623 7 13.0455 9.07444 13.5424 11.2286C10.7117 11.0845 8.19931 9.7137 6.51885 7.63086C5.62602 9.17795 6.05652 11.2034 7.57363 12.2288C7.01579 12.2106 6.49117 12.0553 6.0316 11.7979C5.99423 13.3926 7.12653 14.8851 8.76546 15.218C8.28651 15.3495 7.76051 15.3803 7.22619 15.2768C7.65946 16.6448 8.92049 17.6394 10.4099 17.6673C8.97448 18.8032 7.17082 19.311 5.36163 19.0955C6.87045 20.0733 8.66026 20.6426 10.5843 20.6426C16.913 20.6426 20.4871 15.2418 20.2712 10.3977C20.9384 9.91373 21.5156 9.30664 21.9724 8.61563Z" fill="#1C1E45"/>
</svg>
